<?xml version="1.0" encoding="UTF-8" standalone="no"?>
<svg width="135px" height="40px" viewBox="0 0 135 40" version="1.1" xmlns="http://www.w3.org/2000/svg" xmlns:xlink="http://www.w3.org/1999/xlink" xmlns:sketch="http://www.bohemiancoding.com/sketch/ns">
    <!-- Generator: Sketch 3.3.2 (12043) - http://www.bohemiancoding.com/sketch -->
    <title>Untitled</title>
    <desc>Created with Sketch.</desc>
    <defs>
        <linearGradient x1="50.0012509%" y1="100.270574%" x2="50.0012509%" y2="10.131036%" id="linearGradient-1">
            <stop stop-color="#1A1A1A" stop-opacity="0.1" offset="0%"></stop>
            <stop stop-color="#212121" stop-opacity="0.1506" offset="12.35%"></stop>
            <stop stop-color="#353535" stop-opacity="0.2265" offset="30.85%"></stop>
            <stop stop-color="#575757" stop-opacity="0.3181" offset="53.21%"></stop>
            <stop stop-color="#858585" stop-opacity="0.4212" offset="78.34%"></stop>
            <stop stop-color="#B3B3B3" stop-opacity="0.51" offset="100%"></stop>
        </linearGradient>
    </defs>
    <g id="Page-1" stroke="none" stroke-width="1" fill="none" fill-rule="evenodd" sketch:type="MSPage">
        <g id="appstore" sketch:type="MSLayerGroup">
            <g id="Group" sketch:type="MSShapeGroup">
                <path d="M134.032,35.268 C134.032,37.384 132.318,39.098 130.198,39.098 L4.729,39.098 C2.61,39.098 0.89,37.384 0.89,35.268 L0.89,4.725 C0.89,2.61 2.61,0.89 4.729,0.89 L130.197,0.89 C132.318,0.89 134.031,2.61 134.031,4.725 L134.032,35.268 L134.032,35.268 Z" id="Shape" fill="#FFFFFF"></path>
                <path d="M130.198,39.989 L4.729,39.989 C2.122,39.989 0,37.872 0,35.268 L0,4.726 C0,2.12 2.122,0 4.729,0 L130.197,0 C132.801,0 134.926,2.12 134.926,4.726 L134.926,35.268 C134.928,37.872 132.803,39.989 130.198,39.989 L130.198,39.989 L130.198,39.989 Z" id="Shape" fill="#A6A6A6"></path>
                <path d="M134.032,35.268 C134.032,37.384 132.318,39.098 130.198,39.098 L4.729,39.098 C2.61,39.098 0.89,37.384 0.89,35.268 L0.89,4.725 C0.89,2.61 2.61,0.89 4.729,0.89 L130.197,0.89 C132.318,0.89 134.031,2.61 134.031,4.725 L134.032,35.268 L134.032,35.268 Z" id="Shape" fill="#000000"></path>
                <path d="M30.128,19.784 C30.099,16.561 32.767,14.993 32.889,14.92 C31.378,12.717 29.036,12.416 28.213,12.392 C26.246,12.185 24.338,13.569 23.336,13.569 C22.314,13.569 20.771,12.412 19.108,12.446 C16.968,12.479 14.966,13.718 13.868,15.642 C11.602,19.565 13.292,25.33 15.463,28.501 C16.549,30.055 17.818,31.788 19.479,31.727 C21.104,31.661 21.711,30.692 23.672,30.692 C25.615,30.692 26.185,31.727 27.879,31.688 C29.623,31.661 30.721,30.128 31.769,28.561 C33.024,26.782 33.528,25.028 33.548,24.938 C33.508,24.924 30.162,23.646 30.128,19.784 L30.128,19.784 Z" id="Shape" fill="#FFFFFF"></path>
                <path d="M26.928,10.306 C27.802,9.213 28.4,7.726 28.234,6.217 C26.969,6.273 25.387,7.092 24.476,8.161 C23.67,9.103 22.95,10.647 23.136,12.099 C24.557,12.205 26.016,11.382 26.928,10.306 L26.928,10.306 Z" id="Shape" fill="#FFFFFF"></path>
                <path d="M130.198,0 L62.993,0 L89.316,39.989 L130.198,39.989 C132.802,39.989 134.927,37.872 134.927,35.265 L134.927,4.726 C134.928,2.12 132.803,0 130.198,0 L130.198,0 Z" id="Shape" fill="url(#linearGradient-1)"></path>
                <g transform="translate(42.000000, 17.000000)" id="Shape" fill="#FFFFFF">
                    <path d="M11.665,14.504 L9.394,14.504 L8.15,10.595 L3.826,10.595 L2.641,14.504 L0.43,14.504 L4.715,1.196 L7.361,1.196 L11.665,14.504 L11.665,14.504 Z M7.775,8.955 L6.65,5.48 C6.531,5.125 6.307,4.289 5.979,2.973 L5.939,2.973 C5.807,3.539 5.596,4.375 5.307,5.48 L4.201,8.955 L7.775,8.955 L7.775,8.955 Z"></path>
                    <path d="M22.663,9.588 C22.663,11.22 22.22,12.51 21.333,13.457 C20.539,14.3 19.552,14.721 18.375,14.721 C17.104,14.721 16.19,14.268 15.635,13.36 L15.635,18.395 L13.503,18.395 L13.503,8.062 C13.503,7.037 13.476,5.986 13.424,4.908 L15.299,4.908 L15.418,6.429 L15.458,6.429 C16.169,5.283 17.248,4.71 18.696,4.71 C19.828,4.71 20.773,5.157 21.529,6.052 C22.284,6.949 22.663,8.127 22.663,9.588 L22.663,9.588 Z M20.491,9.666 C20.491,8.732 20.281,7.962 19.859,7.355 C19.398,6.724 18.779,6.408 18.003,6.408 C17.477,6.408 16.999,6.584 16.572,6.931 C16.144,7.281 15.864,7.738 15.733,8.304 C15.667,8.568 15.634,8.783 15.634,8.953 L15.634,10.554 C15.634,11.251 15.848,11.84 16.276,12.322 C16.704,12.802 17.26,13.043 17.944,13.043 C18.747,13.043 19.372,12.732 19.819,12.115 C20.267,11.496 20.491,10.68 20.491,9.666 L20.491,9.666 Z"></path>
                    <path d="M33.7,9.588 C33.7,11.22 33.257,12.51 32.37,13.457 C31.575,14.3 30.589,14.721 29.411,14.721 C28.14,14.721 27.226,14.268 26.671,13.36 L26.671,18.395 L24.539,18.395 L24.539,8.062 C24.539,7.037 24.512,5.986 24.46,4.908 L26.335,4.908 L26.454,6.429 L26.494,6.429 C27.204,5.283 28.283,4.71 29.732,4.71 C30.863,4.71 31.808,5.157 32.566,6.052 C33.32,6.949 33.7,8.127 33.7,9.588 L33.7,9.588 Z M31.527,9.666 C31.527,8.732 31.316,7.962 30.894,7.355 C30.433,6.724 29.816,6.408 29.04,6.408 C28.514,6.408 28.036,6.584 27.607,6.931 C27.179,7.281 26.9,7.738 26.769,8.304 C26.704,8.568 26.669,8.783 26.669,8.953 L26.669,10.554 C26.669,11.251 26.884,11.84 27.31,12.322 C27.738,12.801 28.294,13.043 28.98,13.043 C29.784,13.043 30.409,12.732 30.855,12.115 C31.303,11.496 31.527,10.68 31.527,9.666 L31.527,9.666 Z"></path>
                    <path d="M46.04,10.771 C46.04,11.904 45.644,12.825 44.857,13.536 C43.991,14.312 42.782,14.701 41.232,14.701 C39.8,14.701 38.652,14.425 37.786,13.872 L38.279,12.095 C39.214,12.649 40.241,12.925 41.359,12.925 C42.163,12.925 42.788,12.743 43.234,12.382 C43.681,12.02 43.907,11.536 43.907,10.932 C43.907,10.391 43.72,9.938 43.353,9.569 C42.984,9.201 42.374,8.858 41.517,8.543 C39.187,7.674 38.021,6.403 38.021,4.731 C38.021,3.639 38.433,2.745 39.255,2.046 C40.077,1.348 41.167,0.999 42.523,0.999 C43.734,0.999 44.743,1.21 45.544,1.631 L45.009,3.369 C44.255,2.961 43.404,2.757 42.452,2.757 C41.7,2.757 41.11,2.942 40.688,3.31 C40.333,3.639 40.153,4.04 40.153,4.516 C40.153,5.041 40.358,5.477 40.766,5.819 C41.12,6.134 41.766,6.477 42.7,6.845 C43.846,7.307 44.688,7.845 45.227,8.463 C45.77,9.081 46.04,9.852 46.04,10.771 L46.04,10.771 Z"></path>
                    <path d="M53.107,6.508 L50.757,6.508 L50.757,11.167 C50.757,12.352 51.171,12.943 52.001,12.943 C52.382,12.943 52.698,12.911 52.948,12.844 L53.007,14.463 C52.587,14.62 52.034,14.699 51.349,14.699 C50.507,14.699 49.849,14.442 49.374,13.928 C48.901,13.414 48.663,12.553 48.663,11.341 L48.663,6.504 L47.263,6.504 L47.263,4.904 L48.663,4.904 L48.663,3.147 L50.757,2.515 L50.757,4.904 L53.107,4.904 L53.107,6.508 L53.107,6.508 Z"></path>
                    <path d="M63.689,9.627 C63.689,11.102 63.267,12.313 62.425,13.26 C61.544,14.235 60.372,14.721 58.911,14.721 C57.501,14.721 56.38,14.254 55.544,13.321 C54.708,12.386 54.29,11.208 54.29,9.787 C54.29,8.3 54.722,7.082 55.583,6.135 C56.446,5.187 57.608,4.713 59.069,4.713 C60.477,4.713 61.608,5.181 62.464,6.115 C63.282,7.021 63.689,8.191 63.689,9.627 L63.689,9.627 Z M61.479,9.676 C61.479,8.797 61.289,8.043 60.908,7.412 C60.461,6.65 59.821,6.269 58.992,6.269 C58.138,6.269 57.483,6.65 57.037,7.412 C56.655,8.043 56.465,8.81 56.465,9.716 C56.465,10.596 56.655,11.352 57.037,11.981 C57.498,12.743 58.141,13.124 58.974,13.124 C59.789,13.124 60.428,12.735 60.89,11.962 C61.282,11.316 61.479,10.557 61.479,9.676 L61.479,9.676 Z"></path>
                    <path d="M70.622,6.783 C70.411,6.744 70.185,6.724 69.95,6.724 C69.2,6.724 68.62,7.006 68.212,7.574 C67.858,8.074 67.68,8.706 67.68,9.469 L67.68,14.504 L65.548,14.504 L65.548,7.93 C65.548,6.825 65.527,5.817 65.486,4.909 L67.343,4.909 L67.421,6.745 L67.48,6.745 C67.706,6.114 68.06,5.605 68.546,5.224 C69.021,4.881 69.534,4.71 70.087,4.71 C70.284,4.71 70.462,4.724 70.62,4.749 L70.622,6.783 L70.622,6.783 Z"></path>
                    <path d="M80.157,9.252 C80.157,9.634 80.132,9.956 80.079,10.219 L73.683,10.219 C73.707,11.167 74.017,11.893 74.611,12.393 C75.15,12.839 75.847,13.063 76.703,13.063 C77.65,13.063 78.514,12.913 79.291,12.61 L79.625,14.089 C78.717,14.485 77.645,14.682 76.408,14.682 C74.92,14.682 73.752,14.244 72.902,13.37 C72.054,12.495 71.629,11.319 71.629,9.846 C71.629,8.4 72.024,7.195 72.815,6.234 C73.643,5.208 74.762,4.695 76.17,4.695 C77.553,4.695 78.6,5.208 79.311,6.234 C79.874,7.047 80.157,8.055 80.157,9.252 L80.157,9.252 Z M78.124,8.699 C78.139,8.066 77.999,7.521 77.71,7.06 C77.341,6.466 76.773,6.17 76.012,6.17 C75.315,6.17 74.747,6.459 74.315,7.039 C73.96,7.5 73.749,8.054 73.684,8.697 L78.124,8.699 L78.124,8.699 Z"></path>
                </g>
                <g transform="translate(43.000000, 6.000000)" id="Shape" fill="#FFFFFF">
                    <path d="M5.747,7.433 L4.63,7.433 L4.019,5.512 L1.894,5.512 L1.311,7.433 L0.224,7.433 L2.33,0.892 L3.63,0.892 L5.747,7.433 L5.747,7.433 Z M3.835,4.706 L3.282,2.998 C3.224,2.823 3.117,2.416 2.952,1.766 L2.932,1.766 C2.864,2.047 2.767,2.455 2.621,2.998 L2.078,4.706 L3.835,4.706 L3.835,4.706 Z"></path>
                    <path d="M11.013,2.717 L9.227,7.433 L8.208,7.433 L6.48,2.717 L7.606,2.717 L8.412,5.211 C8.548,5.628 8.664,6.026 8.751,6.404 L8.78,6.404 C8.858,6.065 8.974,5.667 9.119,5.211 L9.915,2.717 L11.013,2.717 L11.013,2.717 Z"></path>
                    <path d="M14.815,7.433 L14.737,6.89 L14.708,6.89 C14.388,7.327 13.922,7.54 13.33,7.54 C12.486,7.54 11.884,6.948 11.884,6.152 C11.884,4.988 12.893,4.386 14.64,4.386 L14.64,4.299 C14.64,3.678 14.31,3.367 13.66,3.367 C13.194,3.367 12.786,3.484 12.428,3.717 L12.215,3.028 C12.652,2.756 13.195,2.62 13.836,2.62 C15.068,2.62 15.69,3.27 15.69,4.571 L15.69,6.308 C15.69,6.784 15.71,7.153 15.758,7.434 L14.815,7.433 L14.815,7.433 Z M14.669,5.084 C13.504,5.084 12.922,5.366 12.922,6.035 C12.922,6.53 13.223,6.772 13.64,6.772 C14.174,6.772 14.669,6.365 14.669,5.812 L14.669,5.084 L14.669,5.084 Z"></path>
                    <path d="M18.024,1.94 C17.675,1.94 17.403,1.668 17.403,1.309 C17.403,0.95 17.684,0.688 18.044,0.688 C18.403,0.688 18.694,0.95 18.684,1.309 C18.684,1.688 18.413,1.94 18.024,1.94 L18.024,1.94 Z M18.568,7.433 L17.52,7.433 L17.52,2.717 L18.568,2.717 L18.568,7.433 L18.568,7.433 Z"></path>
                    <path d="M21.478,7.433 L20.43,7.433 L20.43,0.553 L21.478,0.553 L21.478,7.433 L21.478,7.433 Z"></path>
                    <path d="M25.932,7.433 L25.854,6.89 L25.825,6.89 C25.505,7.327 25.039,7.54 24.447,7.54 C23.603,7.54 23.001,6.948 23.001,6.152 C23.001,4.988 24.01,4.386 25.757,4.386 L25.757,4.299 C25.757,3.678 25.427,3.367 24.777,3.367 C24.311,3.367 23.903,3.484 23.545,3.717 L23.331,3.027 C23.768,2.755 24.311,2.619 24.952,2.619 C26.184,2.619 26.806,3.269 26.806,4.57 L26.806,6.307 C26.806,6.783 26.827,7.152 26.873,7.433 L25.932,7.433 L25.932,7.433 Z M25.786,5.084 C24.621,5.084 24.039,5.366 24.039,6.035 C24.039,6.53 24.34,6.772 24.757,6.772 C25.291,6.772 25.786,6.365 25.786,5.812 L25.786,5.084 L25.786,5.084 Z"></path>
                    <path d="M31.052,7.54 C30.383,7.54 29.889,7.258 29.569,6.705 L29.548,6.705 L29.488,7.433 L28.595,7.433 C28.624,7.055 28.634,6.627 28.634,6.162 L28.634,0.553 L29.683,0.553 L29.683,3.407 L29.703,3.407 C30.014,2.883 30.517,2.621 31.207,2.621 C32.343,2.621 33.139,3.592 33.139,5.008 C33.139,6.472 32.255,7.54 31.052,7.54 L31.052,7.54 Z M30.839,3.444 C30.236,3.444 29.684,3.968 29.684,4.696 L29.684,5.521 C29.684,6.171 30.18,6.705 30.821,6.705 C31.606,6.705 32.073,6.065 32.073,5.046 C32.072,4.095 31.586,3.444 30.839,3.444 L30.839,3.444 Z"></path>
                    <path d="M35.736,7.433 L34.689,7.433 L34.689,0.553 L35.736,0.553 L35.736,7.433 L35.736,7.433 Z"></path>
                    <path d="M41.441,5.327 L38.295,5.327 C38.316,6.22 38.906,6.724 39.78,6.724 C40.246,6.724 40.673,6.646 41.051,6.501 L41.214,7.229 C40.768,7.423 40.244,7.52 39.633,7.52 C38.157,7.52 37.284,6.588 37.284,5.143 C37.284,3.697 38.178,2.61 39.515,2.61 C40.718,2.61 41.476,3.503 41.476,4.852 C41.48,5.036 41.471,5.201 41.441,5.327 L41.441,5.327 Z M40.48,4.58 C40.48,3.852 40.111,3.338 39.441,3.338 C38.839,3.338 38.365,3.862 38.295,4.58 L40.48,4.58 L40.48,4.58 Z"></path>
                    <path d="M47.793,7.54 C46.415,7.54 45.522,6.511 45.522,5.114 C45.522,3.658 46.434,2.62 47.872,2.62 C49.229,2.62 50.143,3.6 50.143,5.037 C50.143,6.511 49.201,7.54 47.793,7.54 L47.793,7.54 Z M47.833,3.386 C47.076,3.386 46.591,4.094 46.591,5.084 C46.591,6.055 47.086,6.763 47.823,6.763 C48.56,6.763 49.054,6.006 49.054,5.064 C49.055,4.104 48.57,3.386 47.833,3.386 L47.833,3.386 Z"></path>
                    <path d="M55.777,7.433 L54.73,7.433 L54.73,4.725 C54.73,3.891 54.41,3.473 53.779,3.473 C53.158,3.473 52.73,4.007 52.73,4.628 L52.73,7.433 L51.683,7.433 L51.683,4.065 C51.683,3.648 51.672,3.201 51.644,2.716 L52.566,2.716 L52.615,3.444 L52.644,3.444 C52.924,2.94 53.498,2.619 54.138,2.619 C55.127,2.619 55.777,3.376 55.777,4.608 L55.777,7.433 L55.777,7.433 Z"></path>
                    <path d="M62.634,3.503 L61.481,3.503 L61.481,5.793 C61.481,6.376 61.684,6.667 62.091,6.667 C62.276,6.667 62.432,6.647 62.557,6.618 L62.586,7.414 C62.382,7.492 62.109,7.531 61.772,7.531 C60.946,7.531 60.453,7.075 60.453,5.881 L60.453,3.503 L59.765,3.503 L59.765,2.717 L60.453,2.717 L60.453,1.853 L61.481,1.542 L61.481,2.716 L62.634,2.716 L62.634,3.503 L62.634,3.503 Z"></path>
                    <path d="M68.184,7.433 L67.135,7.433 L67.135,4.745 C67.135,3.901 66.815,3.474 66.184,3.474 C65.641,3.474 65.137,3.843 65.137,4.59 L65.137,7.433 L64.088,7.433 L64.088,0.553 L65.137,0.553 L65.137,3.386 L65.157,3.386 C65.487,2.872 65.963,2.619 66.574,2.619 C67.573,2.619 68.184,3.395 68.184,4.628 L68.184,7.433 L68.184,7.433 Z"></path>
                    <path d="M73.539,5.327 L70.394,5.327 C70.414,6.22 71.004,6.724 71.878,6.724 C72.345,6.724 72.771,6.646 73.149,6.501 L73.313,7.229 C72.867,7.423 72.342,7.52 71.731,7.52 C70.255,7.52 69.382,6.588 69.382,5.143 C69.382,3.697 70.276,2.61 71.613,2.61 C72.816,2.61 73.574,3.503 73.574,4.852 C73.578,5.036 73.568,5.201 73.539,5.327 L73.539,5.327 Z M72.578,4.58 C72.578,3.852 72.21,3.338 71.54,3.338 C70.937,3.338 70.463,3.862 70.394,4.58 L72.578,4.58 L72.578,4.58 Z"></path>
                </g>
            </g>
        </g>
    </g>
</svg>