<?xml version="1.0" encoding="UTF-8" standalone="no"?>
<svg width="400px" height="400px" viewBox="0 0 400 400" version="1.1" xmlns="http://www.w3.org/2000/svg" xmlns:xlink="http://www.w3.org/1999/xlink" xmlns:sketch="http://www.bohemiancoding.com/sketch/ns">
    <!-- Generator: Sketch 3.3.2 (12043) - http://www.bohemiancoding.com/sketch -->
    <title>Artboard 1</title>
    <desc>Created with Sketch.</desc>
    <defs></defs>
    <g id="Page-1" stroke="none" stroke-width="1" fill="none" fill-rule="evenodd" sketch:type="MSPage">
        <g id="Artboard-1" sketch:type="MSArtboardGroup"></g>
        <g id="Rectangle-1-+-FREE" sketch:type="MSLayerGroup">
            <rect id="Rectangle-1" fill="#4000FF" sketch:type="MSShapeGroup" x="0" y="0" width="400" height="400"></rect>
            <path d="M123.16,109.98 L122.821,86.25 L62.253,86.25 L62.253,171 L90.503,171 L90.503,142.637 L117.284,142.637 L117.51,120.15 L90.503,120.15 L90.503,109.98 L123.16,109.98 Z M199.548,114.839 C199.548,94.951 186.892,86.25 162.71,86.25 L128.923,86.25 L128.923,171 L157.173,171 L157.173,143.654 L162.258,143.654 L172.428,171 L205.198,171 L188.248,138.004 C195.48,134.275 199.548,125.461 199.548,114.839 L199.548,114.839 Z M170.055,115.856 C170.055,123.088 168.36,123.992 162.936,123.992 L157.173,123.992 L157.173,108.059 L162.936,108.059 C168.586,108.059 170.055,109.415 170.055,115.856 L170.055,115.856 Z M236.499,148.061 L236.499,138.456 L263.167,138.456 L263.167,117.551 L236.499,117.551 L236.499,109.528 L269.269,109.528 L268.93,86.25 L208.249,86.25 L208.249,171 L270.286,171 L270.738,148.061 L236.499,148.061 Z M305.768,148.061 L305.768,138.456 L332.436,138.456 L332.436,117.551 L305.768,117.551 L305.768,109.528 L338.538,109.528 L338.199,86.25 L277.518,86.25 L277.518,171 L339.555,171 L340.007,148.061 L305.768,148.061 Z M67.3945,230.25 L67.3945,315 L92.3675,315 L92.3675,286.863 L92.2545,277.71 L92.4805,277.597 L95.4185,286.298 L105.8145,315 L124.0075,315 L134.6295,285.959 L137.6805,277.258 L138.0195,277.371 L137.7935,286.524 L137.7935,315 L163.5575,315 L163.5575,230.25 L132.9345,230.25 L118.5835,267.201 L115.5325,275.789 L115.1935,275.789 L112.1425,267.201 L98.1305,230.25 L67.3945,230.25 Z M223.7865,315 L255.3135,315 L227.6285,230.25 L193.9545,230.25 L166.9475,315 L196.7795,315 L199.7175,302.231 L220.9615,302.231 L223.7865,315 Z M210.4525,254.545 L210.7915,254.545 L212.4865,263.585 L216.2155,280.422 L204.6895,280.422 L208.5315,263.585 L210.4525,254.545 Z M332.6055,315 L332.6055,230.25 L307.6325,230.25 L307.6325,257.935 L307.8585,266.975 L307.6325,267.088 L281.8685,230.25 L258.7035,230.25 L258.7035,315 L283.7895,315 L283.7895,284.264 L283.6765,275.111 L283.9025,274.998 L289.1005,282.456 L313.0565,315 L332.6055,315 Z" id="FREE" fill="#FFFFFF" sketch:type="MSShapeGroup"></path>
        </g>
    </g>
</svg>